<?xml version="1.0" encoding="UTF-8"?>
<svg version="1.1" xmlns="http://www.w3.org/2000/svg" width="512" height="512">
<path d="M0 0 C1.45108658 0.00273422 1.45108658 0.00273422 2.93148804 0.00552368 C17.26440977 0.05095174 31.21023917 0.55983928 45.3125 3.3125 C46.65803955 3.55395752 46.65803955 3.55395752 48.03076172 3.80029297 C107.84088904 14.62287989 165.35495829 48.68064457 202.3125 97.3125 C202.72918945 97.85277832 203.14587891 98.39305664 203.57519531 98.94970703 C211.2584873 108.9447116 218.00092968 119.40459036 224.3125 130.3125 C224.70679199 130.98974121 225.10108398 131.66698242 225.50732422 132.36474609 C238.68961173 155.2833756 247.29510918 180.85822563 252.625 206.6875 C252.77243652 207.39817627 252.91987305 208.10885254 253.07177734 208.84106445 C256.05713787 224.48358366 256.6873098 240.11919606 256.625 256 C256.62226578 257.45108658 256.62226578 257.45108658 256.61947632 258.93148804 C256.57404826 273.26440977 256.06516072 287.21023917 253.3125 301.3125 C253.15152832 302.20952637 252.99055664 303.10655273 252.82470703 304.03076172 C241.67268126 365.66150546 205.99947817 424.16034615 155.3125 461.3125 C154.45857666 461.94961914 154.45857666 461.94961914 153.58740234 462.59960938 C144.8447849 469.11651959 135.78842938 474.92287157 126.3125 480.3125 C125.68069824 480.67698242 125.04889648 481.04146484 124.39794922 481.41699219 C101.37828699 494.59268166 75.85904551 503.27606895 49.9375 508.625 C49.22682373 508.77243652 48.51614746 508.91987305 47.78393555 509.07177734 C32.14141634 512.05713787 16.50580394 512.6873098 0.625 512.625 C-0.34239105 512.62317719 -1.3097821 512.62135437 -2.30648804 512.61947632 C-16.63940977 512.57404826 -30.58523917 512.06516072 -44.6875 509.3125 C-45.58452637 509.15152832 -46.48155273 508.99055664 -47.40576172 508.82470703 C-91.00688156 500.93512494 -132.15276903 481.2475709 -165.6875 452.3125 C-166.82251953 451.34376953 -166.82251953 451.34376953 -167.98046875 450.35546875 C-180.1286432 439.71309817 -191.95381337 428.22416267 -201.6875 415.3125 C-202.10128906 414.77512207 -202.51507813 414.23774414 -202.94140625 413.68408203 C-210.62826589 403.6861221 -217.37363145 393.22438153 -223.6875 382.3125 C-224.08179199 381.63525879 -224.47608398 380.95801758 -224.88232422 380.26025391 C-238.06461173 357.3416244 -246.67010918 331.76677437 -252 305.9375 C-252.14743652 305.22682373 -252.29487305 304.51614746 -252.44677734 303.78393555 C-255.43213787 288.14141634 -256.0623098 272.50580394 -256 256.625 C-255.99817719 255.65760895 -255.99635437 254.6902179 -255.99447632 253.69351196 C-255.94904826 239.36059023 -255.44016072 225.41476083 -252.6875 211.3125 C-252.44604248 209.96696045 -252.44604248 209.96696045 -252.19970703 208.59423828 C-244.31012494 164.99311844 -224.6225709 123.84723097 -195.6875 90.3125 C-194.71876953 89.17748047 -194.71876953 89.17748047 -193.73046875 88.01953125 C-183.08809817 75.8713568 -171.59916267 64.04618663 -158.6875 54.3125 C-158.15012207 53.89871094 -157.61274414 53.48492187 -157.05908203 53.05859375 C-147.0611221 45.37173411 -136.59938153 38.62636855 -125.6875 32.3125 C-125.01025879 31.91820801 -124.33301758 31.52391602 -123.63525391 31.11767578 C-100.7166244 17.93538827 -75.14177437 9.32989082 -49.3125 4 C-48.60182373 3.85256348 -47.89114746 3.70512695 -47.15893555 3.55322266 C-31.51641634 0.56786213 -15.88080394 -0.0623098 0 0 Z " fill="#5E9BEA" transform="translate(255.6875,-0.3125)"/>
<path d="M0 0 C4.41574852 3.7849273 8.58320817 7.44967793 12.69442749 11.51361084 C13.48638266 12.29475923 13.48638266 12.29475923 14.29433692 13.09168839 C16.04145657 14.81630639 17.78517894 16.54431508 19.52880859 18.27246094 C20.78914682 19.51832959 22.04962839 20.76405325 23.3102417 22.00964355 C34.76039281 33.33012268 46.17912318 44.6824904 57.59049034 56.04204941 C66.01828647 64.43087379 74.46053358 72.80458131 82.92221582 81.15922713 C88.88194825 87.04610436 94.82437719 92.95010264 100.75438559 98.8669188 C104.29280282 102.39647861 107.83847719 105.91795378 111.40314865 109.42101288 C114.75374207 112.71433359 118.08239091 116.02834494 121.39556122 119.35929871 C122.61281711 120.57567705 123.83777236 121.7844078 125.07094955 122.98464203 C135.53465215 133.18319062 135.53465215 133.18319062 136.22445679 139.49879456 C136.19448505 141.00076166 136.12120395 142.50263128 136 144 C136.04098342 145.60348458 136.09326895 147.20675419 136.16113281 148.80932617 C136.18061499 150.47048509 136.19440911 152.13171845 136.203125 153.79296875 C136.21013931 154.69350983 136.21715363 155.5940509 136.22438049 156.5218811 C136.24177902 159.41047226 136.2482324 162.29885837 136.25 165.1875 C136.25067474 166.17487152 136.25134949 167.16224304 136.25204468 168.17953491 C136.23629657 182.67088264 135.78341075 196.74020251 133 211 C132.83902832 211.89702637 132.67805664 212.79405273 132.51220703 213.71826172 C121.36018126 275.34900546 85.68697817 333.84784615 35 371 C34.14607666 371.63711914 34.14607666 371.63711914 33.27490234 372.28710938 C24.5322849 378.80401959 15.47592938 384.61037157 6 390 C5.36819824 390.36448242 4.73639648 390.72896484 4.08544922 391.10449219 C-18.93421301 404.28018166 -44.45345449 412.96356895 -70.375 418.3125 C-71.08567627 418.45993652 -71.79635254 418.60737305 -72.52856445 418.75927734 C-88.17282996 421.74497115 -103.80543299 422.36876117 -119.6875 422.3125 C-120.64924133 422.31200653 -121.61098267 422.31151306 -122.60186768 422.31100464 C-136.23434058 422.28960603 -149.65883944 421.95751791 -163.08496094 419.33251953 C-165.19089626 418.92072496 -165.19089626 418.92072496 -168.1328125 418.90234375 C-171.40221529 417.87341726 -172.08257591 416.99271592 -174.22218323 414.40771484 C-177.74220269 410.26519284 -181.45912075 406.40566557 -185.31225586 402.57421875 C-186.00578156 401.88054703 -186.69930725 401.18687531 -187.41384888 400.47218323 C-189.67848174 398.20824012 -191.94662249 395.94784741 -194.21484375 393.6875 C-195.79689566 392.1073156 -197.37872512 390.52690847 -198.96034241 388.94628906 C-203.10253278 384.80789763 -207.24771857 380.67251946 -211.39355469 376.53778076 C-215.63203643 372.30956981 -219.86765171 368.07848948 -224.10351562 363.84765625 C-232.39955512 355.56230775 -240.69876482 347.28014262 -249 339 C-248.07767578 338.54947266 -248.07767578 338.54947266 -247.13671875 338.08984375 C-243.44601855 336.20738423 -241.33819997 335.0145999 -240 331 C-239.67 318.46 -239.34 305.92 -239 293 C-160.46 293 -81.92 293 -1 293 C-0.67 305.54 -0.34 318.08 0 331 C2.2407453 336.02822886 2.2407453 336.02822886 4.97265625 336.55859375 C9.45751427 336.46098764 9.45751427 336.46098764 13 334 C13.31386625 331.86033156 13.31386625 331.86033156 13.2784729 329.35568237 C13.28963638 328.37689117 13.30079987 327.39809998 13.31230164 326.38964844 C13.31554192 324.77340576 13.31554192 324.77340576 13.31884766 323.12451172 C13.32889328 321.99280548 13.3389389 320.86109924 13.34928894 319.69509888 C13.38027518 315.93996711 13.39719899 312.18490711 13.4140625 308.4296875 C13.43276172 305.83179093 13.45233418 303.23390051 13.4727478 300.63601685 C13.51894192 294.4878977 13.55630274 288.33978252 13.58942068 282.19158089 C13.62761045 275.19281939 13.67702878 268.19415141 13.72740483 261.19546866 C13.83079138 246.79704958 13.92002984 232.39856721 14 218 C15.15786011 217.97812622 15.15786011 217.97812622 16.33911133 217.95581055 C19.83075093 217.88141967 23.3214249 217.7847291 26.8125 217.6875 C28.02744141 217.66494141 29.24238281 217.64238281 30.49414062 217.61914062 C31.65751953 217.58369141 32.82089844 217.54824219 34.01953125 217.51171875 C35.62985229 217.47244263 35.62985229 217.47244263 37.27270508 217.43237305 C39.99767731 217.20806845 39.99767731 217.20806845 41.8425293 215.68676758 C43.84017999 212.77561621 43.48423844 210.3896691 43 207 C30.65620476 199.59372285 14.39023335 203.37869035 0 203 C0 136.01 0 69.02 0 0 Z " fill="#4988DB" transform="translate(376,90)"/>
<path d="M0 0 C1.0209375 -0.01160156 1.0209375 -0.01160156 2.0625 -0.0234375 C4.73776349 0.52671749 5.41124319 1.12308554 7 3.375 C7.28836472 6.17653575 7.39165244 8.75457611 7.36076355 11.55632019 C7.3633316 12.39805786 7.36589966 13.23979553 7.36854553 14.10704041 C7.3735256 16.94679598 7.35691787 19.78602506 7.34057617 22.62573242 C7.33965754 24.68863311 7.34005701 26.75153474 7.34167194 28.81443501 C7.34235061 34.35037137 7.3249341 39.88611411 7.30384064 45.4220047 C7.28678498 50.61227545 7.28595288 55.80249856 7.28381348 60.99279785 C7.26805703 76.18272432 7.22617375 91.37261459 7.1875 106.5625 C7.125625 140.490625 7.06375 174.41875 7 209.375 C76.3 209.375 145.6 209.375 217 209.375 C216.88115856 141.71517437 216.88115856 141.71517437 216.72973633 74.05541992 C216.71618652 60.99279785 216.71618652 60.99279785 216.71366882 54.88471985 C216.71086496 50.60313794 216.69958735 46.32166673 216.68327332 42.04011536 C216.66276577 36.58613313 216.65651351 31.13231294 216.66078317 25.67829573 C216.65988977 23.67205577 216.65389975 21.66581041 216.64235461 19.65960348 C216.62752612 16.95830113 216.63099502 14.25763586 216.63923645 11.55632019 C216.62612946 10.36746452 216.62612946 10.36746452 216.61275768 9.15459156 C216.65643228 3.86197517 216.65643228 3.86197517 218.40145397 1.38856983 C220.39250487 0.12612941 221.65100197 -0.02669316 224 0 C225.0209375 -0.01160156 225.0209375 -0.01160156 226.0625 -0.0234375 C228.73776349 0.52671749 229.41124319 1.12308554 231 3.375 C231.2883695 6.17658221 231.39164595 8.75453473 231.36076355 11.55632019 C231.36332682 12.40009525 231.3658901 13.24387031 231.36853105 14.11321431 C231.37348688 16.95091251 231.35694647 19.78808295 231.34057617 22.62573242 C231.33973029 24.65570564 231.34020428 26.68567978 231.34190369 28.71565247 C231.34276657 34.23603984 231.32509331 39.75623278 231.30418181 45.27657485 C231.28546389 51.04214611 231.28366843 56.80772153 231.28010559 62.57331848 C231.27077075 73.49554601 231.24613749 84.41768376 231.21605712 95.3398717 C231.18255788 107.77258207 231.16603837 120.20529666 231.15097082 132.6380409 C231.1195892 158.2170771 231.06680074 183.79603352 231 209.375 C232.25659424 209.35928955 233.51318848 209.3435791 234.80786133 209.32739258 C239.46502282 209.27313817 244.12215631 209.23866624 248.77954102 209.21020508 C250.79619034 209.19510821 252.81280679 209.17462885 254.8293457 209.14868164 C257.72615671 209.11233789 260.62253406 209.0952828 263.51953125 209.08203125 C264.87435356 209.05880547 264.87435356 209.05880547 266.25654602 209.03511047 C267.09719101 209.03488388 267.937836 209.03465729 268.80395508 209.03442383 C269.91315056 209.02443108 269.91315056 209.02443108 271.04475403 209.01423645 C273.592883 209.48439318 274.46225218 210.3164407 276 212.375 C276.48907328 216.21771864 276.72007019 218.41419502 274.35253906 221.57324219 C271.33921729 223.88107891 269.68587268 223.83942888 265.921875 223.765625 C264.76171875 223.75273437 263.6015625 223.73984375 262.40625 223.7265625 C260.59640625 223.67628906 260.59640625 223.67628906 258.75 223.625 C257.52796875 223.60695313 256.3059375 223.58890625 255.046875 223.5703125 C252.03045922 223.523181 249.01562509 223.45739413 246 223.375 C246.00276538 223.97006757 246.00553076 224.56513514 246.00837994 225.17823505 C246.07459969 239.6498317 246.12426101 254.12141485 246.15543652 268.59312916 C246.17091305 275.59151967 246.19201744 282.58980912 246.22631836 289.58813477 C246.25938506 296.33785586 246.27683744 303.08745011 246.28463173 309.83725548 C246.29018854 312.41654809 246.30103913 314.99583475 246.31719017 317.57508278 C246.33886565 321.17884528 246.34197102 324.78216947 246.34057617 328.38598633 C246.35675491 329.99683609 246.35675491 329.99683609 246.3732605 331.64022827 C246.36913651 332.62039413 246.36501251 333.60056 246.36076355 334.61042786 C246.36352893 335.46308637 246.36629431 336.31574488 246.36914349 337.19424152 C245.91700828 339.86528336 245.12400626 340.74451626 243 342.375 C240.295406 342.93118667 237.72263177 342.80129934 235 342.375 C232.32568511 340.56336733 232.04079641 339.49738923 231 336.375 C231 323.835 231 311.295 231 298.375 C152.46 298.375 73.92 298.375 -7 298.375 C-7 310.915 -7 323.455 -7 336.375 C-10 341.375 -10 341.375 -11 342.375 C-18.37614002 342.85088 -18.37614002 342.85088 -20.60294056 341.15227795 C-22.4215177 338.8387636 -22.37024634 337.53428737 -22.36076355 334.61042786 C-22.36488754 333.63026199 -22.36901154 332.65009613 -22.3732605 331.64022827 C-22.36247467 330.56632843 -22.35168884 329.49242859 -22.34057617 328.38598633 C-22.34123329 326.68820793 -22.34123329 326.68820793 -22.34190369 324.95613098 C-22.33980978 321.20625701 -22.31644966 317.45682734 -22.29296875 313.70703125 C-22.28737496 311.11057276 -22.28310384 308.5141111 -22.28010559 305.91764832 C-22.26981243 299.77653503 -22.24615625 293.63560574 -22.21605712 287.49456185 C-22.18253323 280.50311224 -22.16603219 273.51165502 -22.15097082 266.52014506 C-22.11960712 252.13834404 -22.06683407 237.75667771 -22 223.375 C-22.76666992 223.39594727 -23.53333984 223.41689453 -24.32324219 223.43847656 C-27.7986946 223.52165158 -31.27393763 223.57366575 -34.75 223.625 C-35.9565625 223.65851563 -37.163125 223.69203125 -38.40625 223.7265625 C-39.56640625 223.73945313 -40.7265625 223.75234375 -41.921875 223.765625 C-42.99018555 223.78657227 -44.05849609 223.80751953 -45.15917969 223.82910156 C-48.70064832 223.26300224 -49.85168951 222.1956922 -52 219.375 C-52.46745811 216.16957293 -52.34987762 214.18458886 -51.06518555 211.21191406 C-47.67018263 208.19217155 -43.89915944 208.8842681 -39.51953125 208.984375 C-38.12754768 208.99286469 -38.12754768 208.99286469 -36.70744324 209.00152588 C-33.74193854 209.02392624 -30.7776398 209.07412927 -27.8125 209.125 C-25.80275182 209.14506027 -23.79298471 209.16331187 -21.78320312 209.1796875 C-16.85500371 209.22380304 -11.92770635 209.29285576 -7 209.375 C-7.00276538 208.31609653 -7.00553076 207.25719305 -7.00837994 206.16620159 C-7.07490942 180.42856737 -7.12424435 154.69094428 -7.15543652 128.9532423 C-7.17092083 116.50680172 -7.19204021 104.06041785 -7.22631836 91.61401367 C-7.25617285 80.76869349 -7.27556361 69.92341438 -7.28226548 59.07805425 C-7.28618444 53.33283456 -7.29542697 47.58773239 -7.31719017 41.84255028 C-7.33749293 36.4393297 -7.34384641 31.03627549 -7.33932304 25.6330204 C-7.34015103 23.64598818 -7.3461535 21.65895062 -7.35761642 19.67195129 C-7.37246341 16.96653394 -7.36898228 14.26175113 -7.36076355 11.55632019 C-7.36950207 10.76352337 -7.3782406 9.97072654 -7.38724393 9.15390557 C-7.34355732 3.86196043 -7.34355732 3.86196043 -5.59854603 1.38856983 C-3.60749513 0.12612941 -2.34899803 -0.02669316 0 0 Z " fill="#F3F5F8" transform="translate(144,84.625)"/>
<path d="M0 0 C1.56657349 0.00749268 1.56657349 0.00749268 3.16479492 0.01513672 C22.73780381 0.45213515 38.44461943 9.19212831 52.46484375 22.55078125 C68.18354292 39.07875998 76.08574965 61.93293419 75.70996094 84.53295898 C74.98651612 103.91690774 68.94092017 122.55512405 56.3125 137.5 C55.40951172 138.66015625 55.40951172 138.66015625 54.48828125 139.84375 C46.23160597 149.9525516 35.43189161 156.06216395 23.3125 160.5 C22.5390625 160.85191406 21.765625 161.20382812 20.96875 161.56640625 C5.8399137 166.88374724 -14.82192087 164.6984731 -29.03393555 158.1418457 C-35.52255222 154.99863967 -41.32360448 151.33319208 -46.6875 146.5 C-47.58210938 145.69820312 -48.47671875 144.89640625 -49.3984375 144.0703125 C-58.44300322 135.52133942 -64.60057299 125.97545751 -69.0625 114.375 C-69.30137939 113.75471924 -69.54025879 113.13443848 -69.78637695 112.49536133 C-77.68905851 90.49198486 -75.54663104 64.92337463 -66.125 43.875 C-57.12207972 25.11180477 -42.15552807 10.99090622 -22.6875 3.5 C-15.09943725 0.89583009 -8.00301263 -0.05082105 0 0 Z " fill="#4988DB" transform="translate(255.6875,99.5)"/>
<path d="M0 0 C4.6525442 3.98789503 9.07770099 7.93843777 13.37109375 12.2734375 C13.93828629 12.84204498 14.50547882 13.41065247 15.08985901 13.99649048 C16.87479913 15.78696236 18.65620256 17.58090484 20.4375 19.375 C21.65796939 20.60049323 22.87867053 21.82575572 24.09960938 23.05078125 C27.06908756 26.03119774 30.03540257 29.01472894 33 32 C31.6831879 35.39313511 30.25612093 38.27635462 28.25 41.3125 C25.53059784 45.75818932 23.56550915 50.26122159 21.75 55.125 C21.50411133 55.78153564 21.25822266 56.43807129 21.00488281 57.11450195 C11.78175296 82.59260308 13.71811626 112.24330897 24.90234375 136.6875 C35.31369038 158.50085153 52.92249744 174.90234851 75.6328125 183.3515625 C98.75562804 190.67290956 124.03084854 188.59482909 145.5078125 177.51953125 C160.28543084 169.47574111 171.70374074 157.58997319 180 143 C180.52335938 142.10023438 181.04671875 141.20046875 181.5859375 140.2734375 C193.66152251 118.02248644 196.32145419 87.02119585 189.33203125 62.71875 C185.80307895 52.86666028 181.78047575 43.56755279 175.96875 34.8203125 C175.6490625 34.21960938 175.329375 33.61890625 175 33 C175.33 32.34 175.66 31.68 176 31 C189.58983994 39.39459782 204.50221587 50.58383026 209.01879883 66.61645508 C210.88799596 76.58907161 211.13685303 86.62646899 211.125 96.75 C211.12559166 97.44523773 211.12618332 98.14047546 211.12679291 98.85678101 C211.11021632 110.92078399 210.50053097 122.94296198 210 135 C209.34 157.44 208.68 179.88 208 203 C139.36 203 70.72 203 0 203 C0 136.01 0 69.02 0 0 Z " fill="#4988DB" transform="translate(152,90)"/>
<path d="M0 0 C1.51424561 -0.00821777 1.51424561 -0.00821777 3.05908203 -0.01660156 C26.09067459 0.20199316 46.42406008 9.79381934 62.58984375 25.8671875 C80.98865964 45.04372455 90.03096281 69.84545983 90.125 96.125 C90.12892761 97.1678717 90.12892761 97.1678717 90.13293457 98.23181152 C90.13731782 109.08036592 89.26866429 118.97988426 85.8125 129.3125 C85.51214844 130.3025 85.21179688 131.2925 84.90234375 132.3125 C77.18888262 155.82019107 60.45351885 174.43591116 38.64770508 185.64086914 C19.65765053 194.89520174 -4.1045475 196.69085297 -24.4453125 190.70703125 C-35.15817391 186.71486891 -45.20217287 181.41864624 -54.1875 174.3125 C-54.93128906 173.73242188 -55.67507812 173.15234375 -56.44140625 172.5546875 C-67.44605232 163.40647737 -74.53565106 151.94633571 -80.38720703 139.07226562 C-81.05870234 137.59571339 -81.75850264 136.13207864 -82.46484375 134.671875 C-87.74354808 122.95912728 -88.45106693 110.15578582 -88.5 97.5 C-88.50547852 96.47511475 -88.51095703 95.45022949 -88.51660156 94.39428711 C-88.30314567 71.49010135 -80.64097951 50.04210153 -66.1875 32.3125 C-65.50042969 31.46171875 -64.81335938 30.6109375 -64.10546875 29.734375 C-53.93334324 17.78441854 -40.11127762 8.27239655 -25.1875 3.3125 C-24.30449219 3.01214844 -23.42148438 2.71179688 -22.51171875 2.40234375 C-15.00947137 0.26594218 -7.76551293 0.03081082 0 0 Z M-55.23828125 41.85400391 C-71.23721623 61.93316263 -74.9322265 85.26723255 -73.1875 110.3125 C-70.43921923 131.89257034 -59.87953543 150.47347665 -43.1875 164.3125 C-30.19220846 174.11056705 -16.37784591 178.69680545 -0.25 178.5625 C0.67490234 178.57023438 1.59980469 178.57796875 2.55273438 178.5859375 C21.57950023 178.53260389 38.51344325 170.90710411 52.33203125 157.9453125 C69.10559419 140.14156223 76.59034474 116.7766633 76.1484375 92.59375 C75.10600811 69.47077088 64.6212466 48.40725493 48.0625 32.5 C34.14853644 20.68830196 18.64951976 14.92427533 0.5 14.8125 C-0.48983887 14.80605469 -1.47967773 14.79960938 -2.49951172 14.79296875 C-23.31178945 15.15413626 -42.02863095 26.20709403 -55.23828125 41.85400391 Z " fill="#F1F4F8" transform="translate(255.1875,84.6875)"/>
<path d="M0 0 C37.29 0 74.58 0 113 0 C113 19.8 113 39.6 113 60 C75.71 60 38.42 60 0 60 C0 40.2 0 20.4 0 0 Z " fill="#4B89DB" transform="translate(263,308)"/>
<path d="M0 0 C37.29 0 74.58 0 113 0 C113 19.8 113 39.6 113 60 C75.71 60 38.42 60 0 60 C0 40.2 0 20.4 0 0 Z " fill="#4B89DB" transform="translate(136,308)"/>
<path d="M0 0 C1.50336914 -0.0299707 1.50336914 -0.0299707 3.03710938 -0.06054688 C10.34944712 -0.05566873 10.34944712 -0.05566873 13.72265625 2.27734375 C15.56641073 5.24992751 15.63498862 7.00256831 15.0625 10.4375 C13.1954009 12.74025556 11.70602259 14.11573871 9.0625 15.4375 C6.1104965 15.61526132 3.20377402 15.71514035 0.25 15.75 C-0.96139648 15.79350586 -0.96139648 15.79350586 -2.19726562 15.83789062 C-6.22465327 15.88077026 -8.4277073 15.73329756 -11.98046875 13.671875 C-14.06352948 11.29361005 -14.58069372 10.47156415 -14.4375 7.375 C-13.9375 3.4375 -13.9375 3.4375 -12.71655273 1.71850586 C-9.102171 -0.88402755 -4.28963077 -0.03022802 0 0 Z " fill="#EEF2F8" transform="translate(195.9375,330.5625)"/>
<path d="M0 0 C0.95003906 -0.00708984 1.90007812 -0.01417969 2.87890625 -0.02148438 C10.82842942 0.05119059 10.82842942 0.05119059 14.5 3.4375 C15.19328139 6.14511865 14.98101248 8.69458359 14.5 11.4375 C12.68836733 14.11181489 11.62238923 14.39670359 8.5 15.4375 C5.54681763 15.73515426 2.59145034 15.76062249 -0.375 15.8125 C-1.17808594 15.84988281 -1.98117187 15.88726562 -2.80859375 15.92578125 C-7.18677721 15.99069666 -8.95018521 15.85994457 -12.53515625 13.10546875 C-14.5 10.4375 -14.5 10.4375 -15.0625 7.375 C-13.47733714 -0.90307272 -6.96305084 -0.14644137 0 0 Z " fill="#EFF2F8" transform="translate(315.5,330.5625)"/>
<path d="M0 0 C7.92 0.33 15.84 0.66 24 1 C24 8.92 24 16.84 24 25 C20.94828429 21.94828429 17.90050727 18.89406238 14.86328125 15.828125 C13.3464096 14.30202824 11.8294812 12.77598787 10.3125 11.25 C9.54099609 10.47011719 8.76949219 9.69023437 7.97460938 8.88671875 C7.23662109 8.14550781 6.49863281 7.40429688 5.73828125 6.640625 C5.06837158 5.96547852 4.39846191 5.29033203 3.70825195 4.59472656 C2.07595037 2.91986953 2.07595037 2.91986953 0 2 C0 1.34 0 0.68 0 0 Z " fill="#4988DB" transform="translate(97,308)"/>
</svg>
